<svg xmlns="http://www.w3.org/2000/svg" xmlns:xlink="http://www.w3.org/1999/xlink" viewBox="0 0 1000 281.69"><defs><style>.cls-1{fill:url(#linear-gradient);}.cls-2{fill:#fff;}.cls-3{fill:url(#linear-gradient-2);}.cls-4{fill:url(#linear-gradient-3);}.cls-5{fill:url(#linear-gradient-4);}</style><linearGradient id="linear-gradient" x1="676.8" y1="146.28" x2="701.67" y2="146.28" gradientUnits="userSpaceOnUse"><stop offset="0" stop-color="#ffb928"></stop><stop offset="1" stop-color="#fecf36"></stop></linearGradient><linearGradient id="linear-gradient-2" x1="171.66" y1="111.84" x2="1000" y2="111.84" xlink:href="#linear-gradient"></linearGradient><linearGradient id="linear-gradient-3" x1="209.87" y1="204.5" x2="360.07" y2="204.5" xlink:href="#linear-gradient"></linearGradient><linearGradient id="linear-gradient-4" x1="257.58" y1="204.5" x2="316.32" y2="204.5" xlink:href="#linear-gradient"></linearGradient></defs><title>logo</title><g id="Layer_2" data-name="Layer 2"><g id="Layer_1-2" data-name="Layer 1"><path class="cls-1" d="M689,158.82a12.54,12.54,0,1,0,0-25.08,12.54,12.54,0,0,0,0,25.08Z"></path><path class="cls-2" d="M695.45,193.77h-54v-24a4,4,0,0,0-3.86-4.07l-12.22.21A4.22,4.22,0,0,0,621.3,170v23.8H583.36c-3,0-4.72.65-4.72,4.08v51.24c-.64,3.86-8.57,14.15-21.23,14.15-10.92,0-17.57-7.5-17.57-21.43v-44a4.23,4.23,0,0,0-4.08-4.08H523.54a4.23,4.23,0,0,0-4.07,4.08v43.31c0,22.3,9,40.53,34.73,40.53a38.75,38.75,0,0,0,28.3-11.8l2.15,6.22c.64,1.93,1.72,3.43,3.86,3.43h6a4.21,4.21,0,0,0,4.07-4.07v-64H611.3a4.63,4.63,0,0,0,1,.13h9v44.6c0,15.23,4.93,25.52,21.86,25.52,10.3,0,22.94-5.15,25.09-6.44,2.15-1.07,3-2.79,1.94-5.14l-3.87-9.44c-.85-1.93-2.14-3.22-4.93-1.93-2.57,1.29-8.58,3.86-13.08,3.86-4.07,0-6.86-1.28-6.86-8.58V211.57h21.87a4.55,4.55,0,0,0,1-.13h14.85v64a4.22,4.22,0,0,0,4.08,4.07h12.21a4.23,4.23,0,0,0,4.09-4.07V197.85A4.24,4.24,0,0,0,695.45,193.77Z"></path><path class="cls-3" d="M999,113.76c-21.18-116-374.18-148.65-788.45-73q-19.59,3.59-38.9,7.4c419.49-70.61,771-31,793.44,92.07,4.83,26.44-6.11,54.66-30.1,83.47C981.7,185.66,1005.26,148,999,113.76Z"></path><path class="cls-4" d="M311.5,254.48a55.56,55.56,0,0,1-80.19-49.77c0-30.45,25.08-56,55.53-56,21.82,0,40.81,12.93,50,31.36h23.28a76.92,76.92,0,0,0-73.23-52.8c-42.88,0-77,34.52-77,77.4a76.51,76.51,0,0,0,77,77,78.36,78.36,0,0,0,24.66-4Z"></path><path class="cls-2" d="M321.18,268.39l4.51-8.36c.85-1.72,3.21-2.36,5.35-1.08,0,0,9.44,5.58,19.94,5.58,6.44,0,10.51-2.57,10.51-7.28,0-5.79-4.72-8.59-16.5-13.95-13.3-5.79-24.45-13.93-24.45-28.08,0-10.73,8.79-23.59,29.38-23.59,12,0,21,3.86,25.3,6.64,1.92,1.29,3,4.09,1.71,6.22l-3.86,7.3a4.52,4.52,0,0,1-5.58,1.71s-9.43-4.5-17.57-4.5c-7.3,0-9.65,3.22-9.65,6.43,0,5.58,5.36,7.93,13.72,11.58,15.65,6.86,28.51,13.51,28.51,29.59,0,13.29-12.64,25.09-31.72,25.09-14.38,0-23.81-5.15-28.31-8.8A3.61,3.61,0,0,1,321.18,268.39Z"></path><path class="cls-2" d="M429.24,191.63c24,0,43.31,20.59,43.31,44.82,0,24.65-19.3,45.24-43.31,45.24s-43.32-20.59-43.32-45.24C385.92,212.22,405.22,191.63,429.24,191.63Zm0,71.61c13.5,0,24.23-12,24.23-26.79,0-14.37-10.73-26.16-24.23-26.16S405,222.08,405,236.45C405,251.24,415.72,263.24,429.24,263.24Z"></path><path class="cls-2" d="M483.24,133.53a4.22,4.22,0,0,1,4.08-4.08h12.21a4.22,4.22,0,0,1,4.08,4.08V275.47a4.22,4.22,0,0,1-4.08,4.07H487.32a4.22,4.22,0,0,1-4.08-4.07Z"></path><path class="cls-2" d="M753.56,191.63c24,0,43.31,20.59,43.31,44.82,0,24.65-19.3,45.24-43.31,45.24s-43.32-20.59-43.32-45.24C710.24,212.22,729.55,191.63,753.56,191.63Zm0,71.61c13.5,0,24.23-12,24.23-26.79,0-14.37-10.73-26.16-24.23-26.16s-24.23,11.79-24.23,26.16C729.33,251.24,740,263.24,753.56,263.24Z"></path><path class="cls-2" d="M807.57,197.84a4.23,4.23,0,0,1,4.08-4.07h6.22a3.47,3.47,0,0,1,3.42,2.58l2.57,7.29c1.51-1.71,12.87-12,30-12,26.16,0,35.81,18.44,35.81,40.74v43.1a4.22,4.22,0,0,1-4.07,4.07H873.39a4.07,4.07,0,0,1-4.07-4.07v-44c0-13.71-6.64-21.22-17.79-21.22-13.52,0-22.74,9.86-23.8,12.86v52.32c0,2.78-1.29,4.07-4.93,4.07H811.65a4.22,4.22,0,0,1-4.08-4.07Z"></path><circle class="cls-5" cx="286.95" cy="204.5" r="29.37"></circle><path class="cls-2" d="M222.77,129.45H207.55a3.94,3.94,0,0,0-3.64,2.36L156.73,237.94h-1.29L108.28,131.81a4.22,4.22,0,0,0-3.64-2.36H4.07A4.07,4.07,0,0,0,0,133.53V275.47a4.07,4.07,0,0,0,4.07,4.07H89.84a4.07,4.07,0,0,0,4.07-4.07v-11.8a4.07,4.07,0,0,0-4.07-4.07H22.09V213.5H79.33a4.06,4.06,0,0,0,4.07-4.07v-12a4.22,4.22,0,0,0-4.07-4.08H22.09V149.6H92.37l58.79,129.73a4.37,4.37,0,0,0,3.65,2.36H157a4.08,4.08,0,0,0,3.64-2.36L226.42,135A3.79,3.79,0,0,0,222.77,129.45Z"></path></g></g></svg>