<svg xmlns="http://www.w3.org/2000/svg" width="100" height="100" viewBox="0 0 100 100" fill="none"><circle cx="50" cy="50" r="49" stroke="white" stroke-width="2"></circle><path d="M51.2363 48.7648C50.8545 48.3829 50.2363 48.3829 49.8545 48.7648C49.4736 49.1456 49.4736 49.7638 49.8545 50.1456C50.2363 50.5265 50.8545 50.5265 51.2363 50.1456C51.6172 49.7638 51.6172 49.1456 51.2363 48.7648Z" fill="white"></path><path d="M63.6655 36.335C61.7573 34.4269 58.6682 34.4268 56.7599 36.335C54.8567 38.2383 54.8566 41.3359 56.7602 43.2407C58.6641 45.1434 61.7618 45.1442 63.6655 43.2405C65.5735 41.3325 65.5739 38.2433 63.6655 36.335ZM62.2844 41.8593C61.1425 43.0013 59.2838 43.0013 58.1413 41.8595C56.9992 40.7168 56.9991 38.858 58.1411 37.7161C59.2859 36.5713 61.1394 36.5711 62.2844 37.7161C63.4292 38.8608 63.4294 40.7144 62.2844 41.8593Z" fill="white"></path><path d="M74.7135 25.2859C74.5217 25.0942 74.26 24.9903 73.9879 25.0006C73.7671 25.0085 68.5098 25.2198 62.2603 27.4287C57.2525 29.1969 53.0784 31.7284 49.8539 34.953C49.1313 35.6756 48.4282 36.4418 47.7554 37.2378C44.5672 35.361 42.0123 35.9495 40.3972 36.8138C36.6783 38.8041 34.3765 44.208 34.3765 48.0732C34.3768 48.4681 34.6147 48.8243 34.9796 48.9753C35.1004 49.0254 35.2273 49.0497 35.3531 49.0497C35.6073 49.0497 35.857 48.9504 36.0438 48.7637C38.0051 46.8025 40.4241 46.9251 41.2143 47.029L41.5563 47.371C40.8833 48.9726 40.3411 50.5652 39.9434 52.1141C39.7999 52.6746 39.8483 53.2678 40.0617 53.8104C39.1215 54.2437 38.2143 54.8799 37.4245 55.6698C34.9107 58.1836 34.4003 64.31 34.3798 64.5695C34.3573 64.8544 34.4606 65.1349 34.6627 65.3369C34.8466 65.5207 35.0953 65.623 35.3531 65.623C35.3787 65.623 35.4044 65.622 35.4301 65.6199C35.6896 65.5995 41.8162 65.0891 44.33 62.5753C45.1195 61.7858 45.7556 60.8787 46.1889 59.9387C46.7634 60.1646 47.3546 60.1924 47.8862 60.0562C49.4344 59.6586 51.0268 59.1166 52.6286 58.4435L52.9706 58.7855C53.0744 59.5758 53.197 61.9948 51.2359 63.9559C50.9567 64.2352 50.8731 64.6552 51.0243 65.02C51.1754 65.385 51.5314 65.6229 51.9264 65.6229C55.7917 65.6229 61.1955 63.321 63.1857 59.6022C64.05 57.9872 64.6385 55.4324 62.7618 52.244C63.5574 51.5715 64.3237 50.8684 65.0465 50.1455C68.2711 46.9209 70.8026 42.7468 72.5707 37.7394C74.7797 31.4896 74.9909 26.2322 74.9989 26.0115C75.0086 25.7405 74.9052 25.4777 74.7135 25.2859ZM36.5599 45.9727C37.1665 43.0369 38.9285 39.8153 41.3191 38.5358C42.9167 37.6809 44.6629 37.7647 46.5195 38.781C44.9378 40.8613 43.5627 43.1025 42.4165 45.4692C42.4019 45.4602 42.2262 45.2392 41.8996 45.1656C41.7653 45.1352 39.1814 44.5794 36.5599 45.9727ZM42.9489 61.1942C41.6061 62.5369 38.4562 63.2451 36.4653 63.5343C36.7546 61.5433 37.4629 58.3935 38.8056 57.0508C39.5575 56.2989 40.4294 55.7287 41.3057 55.4076L44.5921 58.694C44.271 59.5703 43.701 60.4422 42.9489 61.1942ZM47.4011 58.1642C47.1184 58.2365 46.7911 58.1303 46.5477 57.8873C45.2844 56.6239 44.7901 56.1297 44.635 55.9747C44.3507 55.6904 43.6533 54.993 42.113 53.4526C41.8694 53.2085 41.7632 52.8813 41.8353 52.5992C42.1481 51.381 42.5572 50.1312 43.0547 48.8694L51.1303 56.945C49.8683 57.4426 48.6187 57.8516 47.4011 58.1642ZM61.4639 58.6806C60.1844 61.0711 56.9629 62.8332 54.0272 63.4398C54.9632 61.6783 55.1696 59.4361 54.8276 58.0764C54.7482 57.7606 54.5422 57.6018 54.5306 57.5831C56.8971 56.4369 59.1382 55.0618 61.2187 53.4801C62.235 55.3369 62.3187 57.0833 61.4639 58.6806ZM63.6657 48.7645C62.7857 49.6444 61.8381 50.4945 60.8493 51.291C58.4721 53.2051 55.8557 54.8264 53.0643 56.117L43.8827 46.9356C45.1733 44.144 46.7946 41.5276 48.7085 39.1507C49.5057 38.1612 50.3557 37.2135 51.2353 36.334C54.1284 33.4409 57.8622 31.1384 62.336 29.4809L70.5188 37.6637C68.8616 42.1375 66.559 45.8712 63.6657 48.7645ZM71.2214 35.6041L64.3957 28.7783C68.1145 27.6232 71.3497 27.1907 72.9646 27.0352C72.809 28.6504 72.3764 31.8856 71.2214 35.6041Z" fill="white"></path><path d="M48.4737 65.3369C48.0921 64.9556 47.4738 64.9558 47.0925 65.3371L44.3308 68.0998C43.9495 68.4813 43.9496 69.0996 44.331 69.4809C44.7125 69.8621 45.3309 69.8621 45.7121 69.4807L48.4739 66.718C48.8551 66.3365 48.855 65.7182 48.4737 65.3369Z" fill="white"></path><path d="M34.6633 51.5265C34.2821 51.1451 33.6638 51.1451 33.2822 51.5263L30.5196 54.288C30.1381 54.6693 30.138 55.2876 30.5193 55.6691C30.9004 56.0503 31.5187 56.0507 31.9003 55.6693L34.663 52.9076C35.0445 52.5263 35.0446 51.908 34.6633 51.5265Z" fill="white"></path><path d="M41.5685 66.7188C41.1874 66.3375 40.5689 66.3375 40.1875 66.7187L33.5722 73.333C33.1908 73.7143 33.1908 74.3327 33.5721 74.714C33.9533 75.0954 34.5717 75.0956 34.9532 74.7141L41.5684 68.0999C41.9499 67.7185 41.9499 67.1002 41.5685 66.7188Z" fill="white"></path><path d="M33.756 66.7188C33.3748 66.3375 32.7563 66.3375 32.375 66.7187L25.7597 73.333C25.3783 73.7143 25.3783 74.3327 25.7596 74.714C26.1408 75.0954 26.7592 75.0956 27.1407 74.7141L33.7559 68.0999C34.1374 67.7185 34.1374 67.1002 33.756 66.7188Z" fill="white"></path><path d="M33.2813 58.4314C32.9 58.0501 32.2816 58.0501 31.9002 58.4315L25.286 65.0467C24.9047 65.4281 24.9047 66.0464 25.2861 66.4278C25.6674 66.8092 26.2858 66.8092 26.6671 66.4277L33.2814 59.8125C33.6627 59.4311 33.6627 58.8128 33.2813 58.4314Z" fill="white"></path><path d="M55.3795 44.621C54.9981 44.2396 54.3799 44.2396 53.9984 44.621L52.6176 46.0018C52.2362 46.3832 52.2362 47.0015 52.6176 47.383C52.999 47.7643 53.6173 47.7643 53.9987 47.383L55.3795 46.0021C55.7609 45.6208 55.7609 45.0024 55.3795 44.621Z" fill="white"></path></svg>